<?xml version="1.0" standalone="no"?>
<!DOCTYPE svg PUBLIC "-//W3C//DTD SVG 20010904//EN"
 "http://www.w3.org/TR/2001/REC-SVG-20010904/DTD/svg10.dtd">
<svg version="1.0" xmlns="http://www.w3.org/2000/svg"
 width="526.000000pt" height="514.000000pt" viewBox="0 0 526.000000 514.000000"
 preserveAspectRatio="xMidYMid meet">

<g transform="translate(0.000000,514.000000) scale(0.100000,-0.100000)"
fill="#000000" stroke="none">
<path d="M2415 4919 c-214 -19 -490 -87 -724 -180 -464 -185 -855 -497 -1103
-879 -133 -205 -205 -356 -279 -582 -85 -263 -114 -479 -106 -798 9 -357 50
-562 172 -855 80 -195 217 -421 354 -589 61 -74 215 -227 312 -308 159 -135
483 -319 710 -402 532 -196 1130 -206 1664 -29 129 42 341 137 440 195 454
270 746 578 966 1022 110 222 186 469 226 735 19 131 21 447 4 581 -69 525
-280 979 -626 1349 -81 86 -285 256 -404 335 -459 305 -1044 453 -1606 405z
m945 -781 c25 -13 55 -38 67 -57 22 -32 23 -43 23 -229 0 -187 -1 -197 -22
-219 l-21 -23 -781 0 c-826 1 -799 -1 -824 47 -15 28 -16 351 -1 390 15 40 48
73 94 94 38 17 81 19 730 19 l691 0 44 -22z m868 -87 c8 -5 12 -21 10 -37 l-3
-29 -210 0 -210 0 -3 32 -3 32 58 3 c138 7 349 7 361 -1z m-457 -127 c27 -33
-21 -64 -77 -50 -26 7 -32 34 -12 54 17 17 73 15 89 -4z m-2751 -83 c6 -23 23
-51 41 -65 29 -24 37 -26 134 -26 94 0 105 -2 115 -20 8 -14 8 -26 0 -40 -10
-18 -21 -20 -111 -20 -97 0 -103 -1 -139 -30 -28 -22 -39 -39 -44 -69 -4 -27
-12 -42 -26 -46 -27 -9 -60 12 -60 38 0 12 -11 39 -25 59 -19 29 -34 39 -67
45 -41 8 -43 11 -43 43 0 32 2 35 42 43 47 9 93 54 93 91 0 30 7 36 46 36 30
0 34 -4 44 -39z m2778 -48 c-3 -27 -6 -28 -64 -31 -48 -2 -63 0 -67 13 -14 34
3 45 70 45 64 0 64 0 61 -27z m-571 -350 c-1 -72 3 -96 21 -130 12 -23 22 -47
22 -53 0 -7 -208 -10 -655 -10 -360 0 -655 2 -655 5 0 3 10 25 22 48 30 60 38
102 28 161 -4 28 -6 54 -3 59 2 4 278 7 612 7 l609 0 -1 -87z m1063 -48 l0
-65 49 0 c103 0 110 -69 9 -80 l-53 -5 -3 -62 -3 -63 -34 0 -34 0 -3 63 -3 62
-35 3 c-70 5 -80 10 -80 41 0 34 14 41 76 41 l44 0 0 58 c0 32 3 62 7 65 3 4
19 7 35 7 28 0 28 0 28 -65z m-3332 -207 c19 -19 15 -95 -5 -107 -15 -8 -18
-23 -18 -85 1 -41 4 -78 7 -81 3 -4 31 -9 62 -12 49 -5 57 -9 62 -30 12 -47
-6 -53 -170 -53 -83 0 -157 4 -164 9 -18 11 -11 65 8 68 8 1 36 5 63 8 l47 6
0 118 c0 105 2 121 21 145 22 28 66 35 87 14z m2417 -46 c68 -34 135 -120 135
-172 l0 -20 -889 0 c-523 0 -892 4 -895 9 -4 5 9 38 27 72 25 49 43 70 81 94
49 30 50 30 230 35 100 3 426 5 726 4 529 -1 547 -2 585 -22z m145 -891 l0
-608 -97 -6 c-54 -4 -459 -7 -900 -7 l-803 0 0 608 c0 335 3 612 7 615 3 4
408 7 900 7 l893 0 0 -609z m1086 575 c23 -23 34 -43 34 -63 0 -38 -42 -96
-109 -152 -63 -53 -56 -62 47 -60 54 1 78 -2 89 -14 20 -20 8 -55 -22 -63 -31
-8 -272 -1 -280 8 -4 4 -7 19 -7 34 0 20 24 50 102 129 72 72 101 108 97 119
-8 20 -51 21 -67 1 -18 -21 -46 -19 -64 7 -29 41 24 87 103 88 36 0 49 -6 77
-34z m-3540 -101 c4 -8 -1 -26 -10 -40 -15 -22 -23 -25 -81 -25 l-65 0 0 -149
c0 -123 -3 -152 -16 -165 -20 -21 -70 -21 -78 0 -3 9 -6 83 -6 165 l0 149 -38
0 c-21 0 -43 5 -50 12 -13 13 -16 50 -5 61 3 4 82 7 175 7 141 0 170 -2 174
-15z m-26 -650 c21 -26 -2 -63 -42 -67 l-33 -3 -2 -140 c-2 -77 0 -155 3 -172
5 -37 34 -57 98 -68 43 -9 54 -26 37 -62 -11 -23 -16 -25 -56 -21 -24 3 -62
15 -84 26 l-40 21 -53 -24 c-61 -28 -100 -32 -122 -10 -26 27 -5 57 54 77 84
28 81 19 78 207 l-3 166 -32 3 c-31 3 -33 6 -33 43 l0 39 109 0 c85 0 111 -3
121 -15z m3438 -67 c38 -32 -11 -68 -92 -68 l-59 0 7 -46 c3 -26 6 -79 6 -118
1 -70 1 -71 38 -99 32 -25 43 -28 80 -22 28 4 48 2 58 -6 17 -14 18 -51 2 -67
-19 -19 -109 -15 -146 8 -18 11 -34 20 -37 20 -2 0 -5 -33 -7 -72 l-3 -73 -35
0 -35 0 -5 58 -5 59 -28 -30 c-16 -17 -56 -42 -88 -57 l-59 -26 0 -80 0 -79
-35 0 c-43 0 -49 18 -43 124 4 84 20 110 72 122 42 9 106 54 150 106 l36 42 0
116 0 117 -67 9 c-61 8 -68 11 -71 33 -2 14 3 30 11 35 18 14 337 8 355 -6z
m-964 -469 c3 -3 0 -29 -8 -57 -17 -65 -72 -133 -133 -164 l-48 -23 -710 0
-710 0 -41 22 c-60 32 -111 94 -129 157 -9 31 -13 61 -10 67 7 11 1778 10
1789 -2z m-1878 -552 c53 -61 17 -135 -70 -144 -43 -5 -45 -7 -48 -42 -3 -31
-6 -36 -28 -36 l-25 0 -3 114 c-1 63 0 121 3 129 4 11 21 13 76 10 63 -3 74
-7 95 -31z m118 17 c3 -9 6 -31 6 -50 0 -34 1 -34 44 -34 l45 0 3 48 c3 42 5
47 28 47 31 0 38 -23 39 -137 1 -66 -3 -90 -15 -102 -8 -9 -19 -16 -24 -16
-15 0 -30 36 -30 69 0 30 -1 31 -45 31 -44 0 -45 -1 -45 -33 0 -40 -21 -72
-42 -64 -8 3 -18 23 -21 44 -9 51 -9 198 0 206 12 13 51 7 57 -9z m398 -99
c26 -60 48 -116 48 -122 0 -22 -58 -16 -65 7 -5 16 -15 20 -55 20 -39 0 -52
-4 -60 -20 -11 -20 -70 -30 -70 -12 0 10 82 212 94 230 4 7 20 12 34 10 23 -3
32 -17 74 -113z m251 83 c19 -22 19 -52 2 -120 -5 -17 -1 -38 9 -59 18 -35 14
-49 -14 -49 -20 0 -55 38 -65 71 -4 10 -15 19 -26 19 -15 0 -19 -7 -19 -35 0
-35 -29 -63 -50 -50 -6 4 -10 61 -10 132 l0 126 77 -6 c65 -5 81 -10 96 -29z
m146 -5 c30 -36 31 -37 46 -18 8 11 20 28 26 38 6 10 22 17 39 17 22 0 30 -5
30 -17 1 -10 3 -55 6 -101 7 -94 1 -127 -22 -136 -34 -13 -46 13 -38 81 7 67
-6 86 -28 38 -6 -14 -17 -25 -23 -25 -7 0 -20 11 -29 25 -9 14 -21 25 -26 25
-5 0 -10 -33 -12 -72 -2 -60 -6 -73 -20 -76 -12 -2 -21 6 -28 23 -11 29 -14
193 -4 219 11 28 51 18 83 -21z m337 7 c41 -83 94 -203 94 -211 0 -19 -59 -9
-70 11 -8 16 -21 20 -58 20 -36 0 -50 -5 -60 -20 -16 -26 -62 -27 -62 -2 0 9
13 49 29 87 16 39 36 87 45 108 13 33 19 38 43 35 17 -2 32 -12 39 -28z m322
9 c2 -9 -25 -49 -59 -90 l-62 -74 62 -3 c61 -3 62 -3 59 -30 l-3 -27 -102 -3
c-101 -3 -103 -2 -103 20 0 13 25 54 56 93 l56 70 -51 3 c-49 3 -51 4 -51 33
l0 30 97 -3 c80 -2 98 -6 101 -19z m230 -11 c3 -28 3 -28 -56 -28 -42 0 -61
-4 -65 -14 -8 -21 2 -26 55 -26 45 0 48 -2 48 -25 0 -23 -3 -25 -50 -25 -27 0
-50 -2 -50 -4 0 -2 -3 -11 -6 -20 -5 -14 4 -16 60 -16 l66 0 0 -30 0 -30 -95
0 -95 0 0 118 c0 65 3 122 7 126 4 4 46 5 93 4 85 -3 85 -3 88 -30z m154 -30
l57 -63 1 63 c0 63 0 63 28 60 l27 -3 3 -119 c4 -160 -14 -171 -97 -61 -23 30
-46 55 -51 55 -6 0 -10 -27 -10 -60 l0 -60 -30 0 -30 0 0 125 c0 123 0 125 23
125 14 0 41 -21 79 -62z"/>
<path d="M1990 4011 c-5 -11 -10 -80 -10 -155 0 -128 1 -136 22 -150 28 -20
33 -20 52 0 13 13 16 42 16 158 0 97 -4 146 -12 154 -18 18 -56 14 -68 -7z"/>
<path d="M2302 4018 c-8 -8 -12 -58 -12 -160 l0 -148 26 -12 c23 -11 29 -10
45 11 16 20 19 41 19 146 0 141 -8 175 -43 175 -13 0 -28 -5 -35 -12z"/>
<path d="M2600 4011 c-5 -11 -10 -80 -10 -155 0 -109 3 -138 16 -150 18 -19
28 -20 55 -6 17 10 19 23 19 158 0 102 -4 152 -12 160 -18 18 -56 14 -68 -7z"/>
<path d="M2912 4018 c-8 -8 -12 -58 -12 -160 l0 -148 26 -12 c23 -11 29 -10
45 11 16 20 19 41 19 146 0 141 -8 175 -43 175 -13 0 -28 -5 -35 -12z"/>
<path d="M3209 4013 c-11 -12 -14 -50 -12 -156 2 -158 10 -181 58 -159 l25 12
0 148 c0 152 -5 172 -41 172 -9 0 -23 -7 -30 -17z"/>
<path d="M962 3713 c2 -10 10 -18 18 -18 8 0 16 8 18 18 2 12 -3 17 -18 17
-15 0 -20 -5 -18 -17z"/>
<path d="M2587 2728 c-35 -46 -73 -160 -88 -258 -19 -130 1 -272 56 -397 14
-31 25 -58 25 -61 0 -3 -29 37 -65 90 -108 158 -267 298 -339 298 -22 0 -26
-4 -26 -31 0 -78 117 -247 236 -340 36 -28 64 -53 62 -54 -2 -2 -57 15 -122
37 -206 69 -264 53 -164 -45 106 -103 236 -148 357 -123 35 7 64 9 67 4 3 -5
5 -30 4 -56 -4 -72 -2 -80 20 -87 37 -12 50 11 50 85 l0 67 63 -14 c101 -21
204 7 306 82 59 43 109 111 93 127 -15 15 -100 -3 -233 -47 -56 -19 -104 -33
-106 -31 -2 2 16 16 39 31 67 44 157 134 199 199 45 68 81 159 73 181 -25 65
-249 -102 -356 -267 -28 -43 -52 -77 -54 -75 -2 2 5 26 16 54 69 183 62 394
-19 579 -22 49 -48 84 -62 84 -4 0 -19 -15 -32 -32z"/>
<path d="M1520 930 c0 -27 3 -30 30 -30 18 0 33 7 38 18 15 27 3 42 -34 42
-31 0 -34 -3 -34 -30z"/>
<path d="M2062 903 c-12 -35 -2 -50 22 -36 12 7 12 13 2 38 l-12 30 -12 -32z"/>
<path d="M2290 935 c0 -24 3 -26 33 -23 24 2 32 8 32 23 0 15 -8 21 -32 23
-30 3 -33 1 -33 -23z"/>
<path d="M2838 897 c-4 -21 -1 -27 13 -27 22 0 24 10 5 35 -12 17 -13 17 -18
-8z"/>
</g>
</svg>
