<?xml version="1.0" standalone="no"?>
<!DOCTYPE svg PUBLIC "-//W3C//DTD SVG 20010904//EN"
 "http://www.w3.org/TR/2001/REC-SVG-20010904/DTD/svg10.dtd">
<svg version="1.0" xmlns="http://www.w3.org/2000/svg"
 width="505.000000pt" height="467.000000pt" viewBox="0 0 505.000000 467.000000"
 preserveAspectRatio="xMidYMid meet">

<g transform="translate(0.000000,467.000000) scale(0.100000,-0.100000)"
fill="#000000" stroke="none">
<path d="M2392 4482 c-34 -26 -64 -55 -67 -64 -6 -17 11 -89 65 -272 52 -177
10 -157 -81 39 -20 44 -44 96 -52 116 -12 30 -24 39 -62 53 -26 8 -52 13 -57
10 -5 -4 -19 -27 -29 -53 -11 -25 -34 -60 -50 -77 l-30 -31 23 -29 c12 -16 48
-59 80 -95 59 -67 69 -89 44 -89 -7 0 -85 54 -172 120 -87 66 -163 120 -169
120 -16 0 -35 -22 -35 -40 0 -10 -13 -35 -28 -56 -15 -21 -34 -53 -41 -71 -7
-17 -21 -39 -32 -49 -26 -23 -24 -43 6 -54 50 -19 299 -26 815 -23 476 2 692
11 720 28 16 10 12 30 -11 51 -12 10 -32 40 -45 66 -13 26 -28 49 -34 53 -5 3
-14 24 -20 45 -19 70 -42 65 -167 -32 -181 -142 -204 -158 -224 -158 -10 0
-19 4 -19 10 0 5 30 44 68 87 105 122 100 109 65 146 -17 18 -39 54 -48 80
-10 27 -24 51 -31 54 -8 3 -34 -3 -60 -13 -42 -16 -50 -24 -71 -73 -42 -96
-116 -242 -126 -248 -26 -16 -21 27 19 172 24 88 44 172 44 187 0 26 -30 61
-101 117 l-27 21 -60 -48z"/>
<path d="M2249 3865 c-199 -31 -321 -75 -632 -225 -108 -52 -173 -61 -437 -63
-194 -2 -280 8 -403 45 -52 16 -71 18 -80 9 -29 -29 57 -109 190 -178 39 -21
70 -39 68 -42 -10 -9 -187 -30 -262 -31 -101 0 -104 -8 -35 -82 109 -117 235
-173 430 -194 34 -3 62 -10 62 -14 0 -5 -25 -44 -56 -87 -65 -90 -162 -283
-199 -396 -125 -379 -86 -826 106 -1209 169 -336 421 -594 739 -753 166 -83
394 -149 562 -162 64 -5 79 -9 83 -25 4 -10 17 -30 29 -46 20 -23 25 -43 31
-128 4 -66 3 -109 -4 -121 -16 -30 0 -147 20 -151 13 -2 18 11 26 60 6 37 7
75 2 93 -5 16 -9 74 -9 127 0 83 3 99 19 110 10 7 25 27 34 45 15 28 23 32 74
38 181 21 378 77 532 153 430 209 785 612 929 1054 59 183 76 292 76 493 0
183 -18 297 -70 455 -33 100 -132 300 -188 379 -24 36 -43 69 -40 73 3 4 21 8
40 8 48 0 176 27 241 52 88 32 253 177 253 220 0 5 -39 8 -87 8 -75 0 -259 23
-269 33 -2 1 33 23 78 47 109 61 168 113 168 150 0 32 -15 47 -33 32 -29 -24
-203 -57 -352 -68 -49 -4 -162 -1 -250 5 l-160 12 -175 84 c-231 109 -384 158
-595 190 -121 18 -339 18 -456 0z m298 -174 c94 -43 126 -159 67 -243 -98
-138 -316 -85 -332 81 -12 133 133 222 265 162z m-516 -86 c99 -35 139 -93
159 -226 15 -96 45 -147 115 -193 60 -40 60 -40 55 -156 -2 -60 -16 -94 -52
-126 -25 -23 -79 -44 -111 -44 -20 0 -20 10 -1 79 l7 25 -29 -21 c-36 -25
-150 -83 -164 -83 -18 0 -11 21 21 62 17 21 29 41 27 43 -9 9 -135 -104 -170
-151 -20 -27 -67 -96 -105 -154 -97 -147 -212 -254 -351 -328 -34 -18 -66 -31
-71 -28 -24 15 66 307 131 426 79 145 254 352 381 450 55 43 18 30 -64 -23
-46 -29 -124 -77 -172 -106 -49 -30 -128 -88 -177 -130 -124 -107 -282 -188
-405 -206 -32 -5 -45 -4 -45 5 0 13 108 203 150 265 69 100 108 132 238 200
70 36 156 82 192 103 36 21 103 53 150 71 47 18 87 36 90 38 10 11 -83 -8
-188 -38 -88 -25 -132 -31 -249 -36 -129 -5 -143 -4 -149 11 -4 10 -2 22 4 28
6 6 95 39 199 74 103 35 184 64 178 64 -5 0 -93 -18 -195 -41 -102 -22 -212
-43 -246 -46 -118 -11 -292 48 -403 138 -45 36 -41 47 11 30 78 -25 219 -43
348 -42 188 1 289 12 575 66 100 18 262 19 316 0z m1214 -1 c322 -54 419 -65
580 -64 129 0 283 19 353 44 59 21 57 -2 -5 -47 -87 -63 -183 -101 -291 -117
-68 -9 -121 -2 -327 43 -123 28 -216 42 -175 28 14 -5 99 -32 190 -61 91 -29
171 -57 178 -62 6 -6 12 -19 12 -31 0 -19 -5 -19 -132 -14 -107 4 -161 12
-273 40 -197 49 -240 55 -145 18 119 -46 166 -68 243 -115 40 -24 110 -63 156
-86 83 -41 154 -101 214 -181 33 -44 150 -279 143 -287 -11 -10 -121 20 -206
57 -97 42 -152 78 -230 151 -54 51 -161 129 -255 186 -27 17 -77 48 -110 69
l-60 37 91 -93 c150 -155 281 -377 338 -574 31 -108 53 -232 43 -242 -13 -12
-111 43 -199 113 -93 75 -127 116 -228 279 -37 60 -81 126 -98 146 -33 39
-169 135 -178 126 -3 -3 8 -24 25 -48 31 -42 39 -69 22 -69 -15 0 -163 71
-195 93 -27 19 -29 19 -23 3 4 -10 10 -35 13 -57 8 -46 0 -48 -61 -20 -72 33
-80 49 -83 177 l-4 113 39 16 c78 33 120 92 146 207 27 120 72 174 182 220 52
22 189 23 310 2z m-2122 -243 c61 -8 88 -24 71 -41 -12 -12 -193 -45 -302 -55
-80 -8 -167 12 -197 45 -10 11 -16 22 -14 24 2 2 54 10 114 18 122 17 240 20
328 9z m3086 -13 l113 -12 -26 -23 c-32 -27 -115 -53 -170 -53 -49 0 -271 37
-303 50 -13 5 -23 16 -23 25 0 35 154 40 409 13z m-1691 -50 c9 -9 12 -119 12
-435 0 -478 9 -436 -85 -405 l-50 17 -3 404 c-1 290 1 408 9 417 14 17 100 19
117 2z m1242 -29 c159 -11 214 -21 276 -48 79 -35 65 -52 -58 -71 -127 -19
-294 19 -426 96 -52 31 -42 47 23 39 22 -3 105 -10 185 -16z m-2270 3 c0 -14
-162 -89 -228 -106 -97 -26 -265 -26 -343 -1 -84 27 112 93 321 108 98 7 250
7 250 -1z m1977 -356 c93 -85 155 -135 274 -216 86 -59 149 -114 149 -130 0
-22 -68 -4 -159 41 -99 49 -208 151 -309 288 -97 131 -85 136 45 17z m-1874
34 c-66 -104 -247 -288 -328 -334 -69 -38 -165 -70 -177 -58 -20 20 15 53 159
150 82 55 191 139 243 186 100 90 137 110 103 56z m691 -164 c75 -31 100 -116
51 -174 -50 -59 -118 -65 -189 -17 -46 31 -46 16 -2 -29 44 -43 126 -81 301
-140 189 -63 273 -106 338 -169 60 -59 82 -109 74 -170 -6 -46 -49 -111 -89
-135 -25 -15 -30 -15 -77 8 -47 21 -69 50 -39 50 25 0 78 63 78 93 0 64 -88
113 -325 181 -386 110 -517 213 -460 361 21 57 75 100 163 131 77 27 128 30
176 10z m499 -16 c73 -23 154 -86 181 -144 20 -41 21 -105 2 -149 -17 -40 -88
-110 -141 -138 l-41 -22 -78 38 c-42 21 -79 42 -82 46 -2 4 25 24 61 43 64 37
108 81 117 123 l6 21 -32 -19 c-114 -69 -260 47 -201 161 32 61 98 74 208 40z
m-1718 -99 c3 -6 -4 -38 -15 -71 -11 -34 -30 -116 -42 -183 -17 -105 -20 -147
-15 -302 10 -318 82 -556 243 -802 133 -205 272 -341 483 -474 159 -100 379
-183 521 -196 55 -5 69 -11 92 -36 40 -42 28 -50 -64 -42 -551 48 -1085 496
-1277 1070 -52 156 -72 274 -78 462 -7 197 5 311 46 465 29 109 27 105 93 117
4 0 9 -3 13 -8z m2911 -6 c6 -2 23 -52 37 -112 85 -351 60 -661 -76 -971 -237
-539 -761 -950 -1294 -1016 -58 -7 -62 -3 -38 43 15 31 33 41 70 41 37 0 204
47 283 79 320 132 582 351 779 652 111 170 183 345 224 543 43 209 13 579 -56
713 -8 15 -12 30 -9 34 4 7 47 4 80 -6z m-1703 -380 c31 -10 56 -23 54 -28 -1
-5 -19 -15 -40 -22 -87 -30 -107 -66 -67 -118 25 -31 132 -76 265 -112 136
-36 236 -86 269 -134 31 -45 34 -94 6 -138 -21 -35 -94 -93 -117 -93 -20 0
-93 43 -93 55 0 6 20 23 44 38 24 15 50 35 57 43 21 26 -15 47 -148 89 -65 20
-154 48 -198 62 -105 33 -162 63 -203 106 -75 77 -59 175 40 241 29 20 58 35
63 34 6 -2 36 -12 68 -23z m202 -64 l50 -18 3 -81 c3 -95 1 -98 -73 -79 l-50
13 -3 92 c-3 103 -6 101 73 73z m-205 -311 c22 -11 40 -24 40 -28 0 -5 -11
-19 -25 -32 -54 -51 -15 -99 113 -141 101 -33 162 -60 210 -92 81 -54 89 -137
19 -184 -60 -41 -96 -23 -53 27 14 17 23 37 20 45 -6 14 -15 18 -194 81 -207
72 -274 132 -256 228 5 28 68 116 82 116 3 0 23 -9 44 -20z m198 -65 l52 -16
0 -59 c0 -52 -3 -60 -19 -60 -26 0 -85 21 -93 34 -13 19 -7 116 6 116 1 0 26
-7 54 -15z m-257 -201 c7 -8 26 -22 41 -30 25 -13 28 -20 23 -43 -12 -56 62
-108 248 -172 122 -42 179 -115 145 -185 -17 -36 -72 -74 -98 -67 -26 7 -25
17 5 57 14 19 23 40 20 48 -9 22 -86 61 -185 93 -186 60 -260 127 -260 237 0
67 30 99 61 62z m254 -118 c19 -8 36 -19 36 -23 10 -63 -4 -73 -64 -48 -33 13
-37 19 -37 50 0 40 11 43 65 21z m-154 -211 c40 -98 38 -97 164 -160 90 -45
125 -68 142 -94 29 -43 29 -89 0 -132 -24 -35 -51 -46 -77 -30 -12 8 -11 16 8
49 12 22 19 47 16 56 -8 22 -55 49 -149 86 -132 52 -185 106 -185 188 0 47 25
95 47 90 8 -2 23 -25 34 -53z m176 -27 c9 -7 13 -27 11 -57 -3 -44 -4 -46 -32
-44 -52 4 -56 9 -56 69 l0 57 32 -7 c17 -3 37 -11 45 -18z m-129 -206 c23 -18
23 -18 5 -49 -17 -31 -17 -33 3 -60 11 -15 60 -49 108 -75 101 -54 120 -68
136 -109 16 -37 7 -70 -31 -114 -36 -41 -65 -47 -55 -12 29 97 22 108 -114
178 -114 58 -145 92 -145 159 0 50 27 100 54 100 9 0 26 -8 39 -18z m111 -43
c26 -16 32 -25 27 -42 -3 -12 -6 -32 -6 -44 0 -25 -27 -31 -61 -13 -15 8 -19
21 -19 59 0 68 6 72 59 40z m-105 -207 c15 -17 15 -22 1 -56 -13 -29 -13 -45
-5 -77 12 -45 9 -55 -15 -46 -47 19 -71 126 -37 172 21 29 34 31 56 7z m105
-39 c21 -17 22 -24 19 -193 -3 -155 -5 -175 -20 -178 -9 -2 -25 5 -35 15 -16
16 -18 35 -15 196 3 189 6 197 51 160z"/>
<path d="M1848 3403 c7 -3 16 -2 19 1 4 3 -2 6 -13 5 -11 0 -14 -3 -6 -6z"/>
<path d="M1622 3216 c-109 -47 -157 -73 -266 -144 -58 -39 -78 -60 -132 -141
-34 -53 -61 -97 -59 -99 5 -5 43 16 103 56 29 20 68 58 87 88 19 29 48 63 64
77 47 39 159 111 246 157 92 50 93 50 74 50 -8 -1 -60 -20 -117 -44z"/>
<path d="M2049 3077 c-30 -28 -94 -84 -141 -124 -87 -72 -127 -123 -174 -216
-28 -54 -56 -127 -49 -127 2 0 40 53 84 118 55 81 111 147 178 212 79 76 176
191 161 190 -2 0 -28 -24 -59 -53z"/>
<path d="M1850 3034 c-137 -108 -218 -191 -272 -281 -60 -98 -116 -235 -124
-299 l-5 -49 24 28 c13 16 34 58 47 95 62 182 147 306 298 440 59 53 143 143
130 142 -1 -1 -46 -35 -98 -76z"/>
<path d="M3295 3233 c92 -50 219 -130 262 -167 19 -16 52 -55 73 -85 21 -31
48 -64 60 -74 37 -31 121 -80 127 -74 8 8 -79 145 -117 185 -55 58 -237 166
-360 214 -104 41 -120 41 -45 1z"/>
<path d="M2830 3153 c0 -30 85 -130 173 -204 95 -80 137 -133 245 -309 27 -44
28 -30 2 45 -44 128 -92 190 -243 312 -64 52 -131 111 -147 131 -17 20 -30 31
-30 25z"/>
<path d="M3040 3095 c19 -22 85 -92 146 -155 69 -72 124 -140 148 -182 35 -64
85 -195 100 -264 4 -17 20 -46 37 -65 l30 -34 -7 45 c-16 111 -87 287 -157
390 -48 70 -84 106 -197 198 -133 109 -143 115 -100 67z"/>
</g>
</svg>
